<?xml version="1.0" encoding="utf-8"?>
<!-- Generator: Adobe Illustrator 26.5.0, SVG Export Plug-In . SVG Version: 6.00 Build 0)  -->
<svg version="1.0" id="katman_1" xmlns="http://www.w3.org/2000/svg" xmlns:xlink="http://www.w3.org/1999/xlink" x="0px" y="0px"
	 viewBox="0 0 1190.55 841.89" style="enable-background:new 0 0 1190.55 841.89;" xml:space="preserve">
<style type="text/css">
	.st0{fill:#201A40;}
</style>
<path id="Masterbrand_Logotype_solid_1_" class="st0" d="M450.12,384.85v-44.36h12.59v42.9c0,8.35,3.95,14.49,13.91,14.49
	c9.22,0,13.91-4.83,13.91-14.49v-42.9h12.59v43.34c0,16.11-10.69,25.33-26.5,25.33C460.81,409.3,450.12,401.1,450.12,384.85z
	 M514.99,359.52h11.27v6h0.15c3.22-4.69,8.35-6.88,13.76-6.88c10.98,0,16.98,6.88,16.98,18.45v31.19h-11.57v-28.26
	c0-7.32-3.07-11.27-9.08-11.27c-6.3,0-10.1,3.95-10.1,12.15v27.23h-11.57L514.99,359.52L514.99,359.52z M569.3,339.75h11.57v12.3
	H569.3V339.75z M569.3,359.52h11.57v48.61H569.3V359.52z M595.07,396.71v-27.96h-6.59v-9.22h6.59v-14.64h11.57v14.79h10.54v9.22
	h-10.54v25.18c0,3.66,1.9,4.69,4.54,4.69c2.34,0,3.66-0.15,6-0.44v9.81c-2.64,0.73-6.88,0.88-8.49,0.88
	C601.08,409.01,595.07,405.35,595.07,396.71z M622.6,389.53v-9.52c0-13.62,10.25-21.23,22.25-21.23c10.54,0,20.94,6.15,20.94,19.03
	v9.37H634.6v2.64c0,6.15,4.98,9.81,11.27,9.81c3.95,0,7.91-2.64,10.54-6.3l8.93,5.12c-3.81,7.61-11.42,10.83-20.06,10.83
	C633.43,409.3,622.6,402.86,622.6,389.53z M654.37,379.14v-1.32c0-6.59-4.69-9.37-9.37-9.37c-4.98,0-10.25,2.64-10.25,9.96v0.73
	H654.37L654.37,379.14z M674.14,390.12v-11.71c0-13.18,9.22-19.77,20.06-19.77c5.42,0,9.81,2.78,12.3,6h0.29v-24.16h11.57v67.79
	h-11.27v-5.42l0,0c-2.78,3.81-9.37,6.59-13.62,6.59C682.63,409.3,674.14,402.56,674.14,390.12z M706.79,389.83v-12.01
	c0-5.86-4.69-9.37-10.69-9.37c-4.83,0-10.1,2.64-10.1,9.66v12.01c0,5.86,4.54,9.37,10.54,9.37
	C701.37,399.34,706.79,396.85,706.79,389.83z M755.25,340.49h12.3l29.43,46.12h0.15v-46.12h12.15v67.79h-12.3l-29.28-46.27h-0.15
	v46.27H755.4L755.25,340.49L755.25,340.49z M819.23,394.37c0-9.37,8.49-14.93,18.01-14.93h12.88v-4.39c0-5.12-3.37-7.32-9.37-7.32
	c-4.98,0-8.78,1.76-8.78,4.83v1.76h-10.4v-1.32c0-10.69,10.1-14.2,19.33-14.2c10.83,0,20.79,3.66,20.79,15.52v23.72
	c0,2.2,0.29,9.37,0.88,10.4h-11.42c-0.15-0.73-0.44-3.66-0.44-4.39h-0.15c-4.25,4.39-7.91,5.42-14.2,5.42
	C826.11,409.15,819.23,403.59,819.23,394.37z M850.13,390.27v-2.34h-11.42c-4.98,0-8.2,1.76-8.2,6c0,4.1,3.37,6.15,8.78,6.15
	C848.66,400.08,850.13,395.54,850.13,390.27z M875.45,396.71v-27.96h-6.59v-9.22h6.59v-14.64h11.57v14.79h10.54v9.22h-10.54v25.18
	c0,3.66,1.9,4.69,4.54,4.69c2.34,0,3.66-0.15,6-0.44v9.81c-2.64,0.73-6.88,0.88-8.49,0.88
	C881.46,409.01,875.45,405.35,875.45,396.71z M905.32,339.75h11.57v12.3h-11.57V339.75z M905.32,359.52h11.57v48.61h-11.57V359.52z
	 M927.14,390.27v-11.13c0-13.18,11.27-20.35,21.96-20.35c11.71,0,22.25,7.76,22.25,20.21v9.96c0,13.18-11.27,20.35-21.96,20.35
	C937.68,409.3,927.14,402.71,927.14,390.27z M959.64,389.97v-12.01c0-5.86-4.54-9.37-10.54-9.37c-4.83,0-10.1,2.64-10.1,9.66v12.01
	c0,5.86,4.54,9.37,10.54,9.37C954.37,399.64,959.64,397,959.64,389.97z M981.75,359.52h11.27v6h0.15c3.22-4.69,8.35-6.88,13.76-6.88
	c10.98,0,16.98,6.88,16.98,18.45v31.19h-11.57v-28.26c0-7.32-3.07-11.27-9.08-11.27c-6.3,0-10.1,3.95-10.1,12.15v27.23H981.6
	L981.75,359.52L981.75,359.52z M1032.7,399.78l8.2-6.15c3.07,3.95,7.91,6.3,13.32,6.3c4.69,0,9.66-1.61,9.66-6
	c0-3.81-2.64-4.69-9.08-5.86l-6.3-1.17c-7.91-1.46-13.32-5.27-13.32-12.59c0-10.1,8.93-15.96,19.33-15.96
	c8.78,0,14.93,2.2,19.03,7.91l-8.35,5.71c-2.78-3.37-6.15-4.69-10.83-4.69c-4.54,0-7.91,1.76-7.91,5.42c0,3.37,4.25,3.95,9.22,4.83
	l7.32,1.46c8.2,1.61,13.03,6.3,13.03,13.62c0,11.27-11.42,16.54-21.52,16.54C1045.73,409.3,1037.53,406.96,1032.7,399.78z
	 M450.12,488.66V464.5c0-13.91,10.54-23.72,25.18-23.72c13.62,0,23.72,7.76,23.72,19.33v3.66h-5.71v-2.78
	c0-9.22-6.88-14.93-18.3-14.93c-10.98,0-18.89,7.17-18.89,18.3v23.13c0,10.98,7.91,18.01,19.33,18.01
	c11.27,0,18.16-5.86,18.16-15.08v-9.66h-19.03v-5.42h24.74v15.81c0,12.01-9.52,19.62-23.87,19.62
	C461.25,511.06,450.12,503.3,450.12,488.66z M513.23,498.61v-56.66h5.56v56.95c0,3.66,2.05,6.59,6.88,6.59
	c1.9,0,3.66-0.29,5.27-0.44v4.25c-2.34,0.73-4.98,0.88-7.03,0.88C515.57,510.18,513.23,504.47,513.23,498.61z M537.97,492.9v-12.74
	c0-12.3,8.35-18.74,19.18-18.74c11.71,0,19.18,6.59,19.18,18.59v12.3c0,12.3-8.05,18.74-19.03,18.74
	C545.73,511.06,537.97,504.91,537.97,492.9z M570.77,492.46v-12.88c0-7.76-4.25-13.32-13.62-13.32c-8.93,0-13.62,5.27-13.62,13.76
	v12.74c0,8.05,4.39,13.62,13.76,13.62C566.38,506.23,570.77,501.39,570.77,492.46z M593.9,501.39h-0.29v8.49h-5.27V442.1h5.56v28.84
	h0.29c3.07-6.88,9.81-9.66,15.23-9.66c9.96,0,16.69,6.44,16.69,16.4v15.37c0,12.74-8.78,18.01-17.72,18.01
	C602.25,511.06,595.81,507.54,593.9,501.39z M620.4,493.78v-16.11c0-6.59-4.69-11.42-12.74-11.42c-6.59,0-13.76,6-13.76,15.81v9.37
	c0,9.08,6.44,14.93,13.91,14.93C613.96,506.23,620.4,502.42,620.4,493.78z M635.48,497.29c0-10.69,9.81-14.2,17.57-14.2h13.91v-7.32
	c0-7.47-4.98-9.96-12.01-9.96c-5.86,0-12.15,2.05-12.15,8.2v1.46h-5.12v-1.46c0-9.37,8.78-12.88,17.57-12.88
	c9.22,0,17.42,3.37,17.42,13.62v22.99c0,2.78,0.44,9.81,0.73,11.86h-5.56c-0.15-1.61-0.44-6.15-0.44-7.47h-0.15
	c-3.95,7.32-10.25,8.49-16.11,8.49C642.51,510.76,635.48,506.08,635.48,497.29z M666.96,492.61v-5.27h-12.74
	c-6.44,0-13.18,1.61-13.18,9.66c0,6.3,5.56,9.37,11.42,9.37C662.13,506.52,666.96,500.81,666.96,492.61z M686.29,498.61v-56.66h5.56
	v56.95c0,3.66,2.05,6.59,6.88,6.59c1.9,0,3.66-0.29,5.27-0.44v4.25c-2.34,0.73-4.98,0.88-7.03,0.88
	C688.63,510.18,686.29,504.47,686.29,498.61z M735.19,488.66V464.5c0-13.91,10.54-23.72,25.33-23.72c13.62,0,23.72,8.05,23.72,19.62
	v3.81h-5.86v-2.78c0-9.22-6.88-15.23-18.16-15.23c-10.98,0-19.03,7.17-19.03,18.3v23.13c0,10.98,7.91,18.01,19.47,18.01
	c11.13,0,17.72-6.15,17.72-15.23v-1.61h5.86v2.64c0,12.01-9.81,19.62-23.43,19.62C746.32,511.06,735.19,503.3,735.19,488.66z
	 M793.9,492.9v-12.74c0-12.3,8.35-18.74,19.18-18.74c11.71,0,19.18,6.59,19.18,18.59v12.3c0,12.3-8.05,18.74-19.03,18.74
	C801.66,511.06,793.9,504.91,793.9,492.9z M826.7,492.46v-12.88c0-7.76-4.25-13.32-13.62-13.32c-8.93,0-13.62,5.27-13.62,13.76
	v12.74c0,8.05,4.39,13.62,13.76,13.62C822.31,506.23,826.7,501.39,826.7,492.46z M844.12,462.45h5.27v9.08h0.15
	c3.37-6.74,9.66-10.1,16.4-10.1c7.76,0,12.01,4.83,13.32,10.4h0.15c3.37-6.74,9.81-10.4,16.84-10.4c9.22,0,14.79,6,14.79,14.49
	v33.97h-5.56v-30.89c0-8.49-4.1-12.59-10.98-12.59c-7.32,0-13.91,6.15-14.2,14.49v28.99h-5.56V478.7c-0.15-8.2-3.95-12.3-10.83-12.3
	c-6.59,0-14.35,5.42-14.35,14.79v28.84h-5.56L844.12,462.45L844.12,462.45z M925.09,462.45h5.27v8.49h0.15
	c3.37-6.74,10.1-9.66,15.52-9.66c9.96,0,16.69,6.3,16.69,16.11v15.52c0,12.74-8.78,18.01-17.57,18.01c-6.15,0-12.3-3.51-14.35-9.66
	h-0.29v26.94h-5.56L925.09,462.45L925.09,462.45z M957.15,493.78v-15.96c0-6.59-4.69-11.71-12.74-11.71
	c-6.59,0-13.76,5.56-13.76,15.52v9.66c0,9.08,6.44,14.93,13.91,14.93C950.71,506.23,957.15,502.42,957.15,493.78z M972.23,497.29
	c0-10.69,9.81-14.2,17.57-14.2h13.91v-7.32c0-7.47-4.98-9.96-12.01-9.96c-5.86,0-12.15,2.05-12.15,8.2v1.46h-5.12v-1.46
	c0-9.37,8.78-12.88,17.57-12.88c9.22,0,17.42,3.37,17.42,13.62v22.99c0,2.78,0.44,9.81,0.73,11.86h-5.56
	c-0.15-1.61-0.44-6.15-0.44-7.47h-0.15c-3.95,7.32-10.25,8.49-16.11,8.49C979.26,510.76,972.23,506.08,972.23,497.29z
	 M1003.71,492.61v-5.27h-12.74c-6.44,0-13.18,1.61-13.18,9.66c0,6.3,5.56,9.37,11.42,9.37
	C998.88,506.52,1003.71,500.81,1003.71,492.61z M1020.4,492.02v-10.98c0-12.3,7.47-19.62,18.89-19.62c11.13,0,18.01,6.3,18.01,15.67
	v1.46h-5.42v-1.9c0-4.83-3.66-10.54-12.59-10.54c-8.78,0-13.18,6.3-13.18,14.49v11.42c0,8.2,3.95,14.2,13.32,14.2
	c8.93,0,12.45-5.56,12.45-10.54v-1.61h5.42v1.17c0,9.37-6.73,15.67-18.01,15.67C1027.58,511.06,1020.4,504.18,1020.4,492.02z
	 M1071.79,500.37v-33.24h-8.78v-4.54h8.78v-14.93h5.56v14.93h14.06v4.54h-14.06v31.77c0,5.12,2.64,6.74,7.47,6.74
	c2.49,0,4.98-0.44,7.17-1.02v4.83c-3.07,0.88-6.88,1.17-8.78,1.17C1077.21,510.62,1071.79,508.42,1071.79,500.37z M296.24,435.65
	c-0.59-0.44-0.73-2.93-0.73-2.93c-1.61-12.45-4.69-25.04-9.52-37.34c-0.29-0.73-0.44-1.17-0.44-1.61c0-0.59,0.29-1.17,1.76-1.9
	c6.3-2.93,11.42-6.59,15.23-10.4c0.59-0.59,1.02-0.88,1.32-0.88l0,0c0.29,0,0.59,0.29,1.17,1.17c5.71,9.81,9.96,20.79,12.88,32.36
	c0.29,1.32,0.44,2.34,0.44,3.07c0,1.61-0.59,2.78-2.05,4.25c-3.81,3.81-10.54,9.22-17.57,13.47
	C298.44,434.92,296.68,435.95,296.24,435.65z M290.09,450c0,0,0-2.2-0.73-2.64c-0.73-0.44-2.49,0.29-2.49,0.29
	c-12.3,4.39-25.77,6.59-39.82,7.03c-2.64,0.15-2.49,0.73-2.64,2.93c-0.15,12.45-0.44,24.16-0.73,34.85c0,0-0.15,1.02,0.29,1.46
	c0.29,0.29,1.46,0.29,1.46,0.29c14.06-0.88,27.38-3.95,39.53-8.93c1.76-0.73,2.05-1.9,2.64-3.95
	C290.97,467.86,290.09,450,290.09,450z M284.68,386.17c5.56-2.93,10.69-6.44,13.91-9.81c0.73-0.73,1.02-1.32,1.02-2.05
	c0-0.73-0.29-1.46-1.02-2.64c-7.47-10.4-16.4-18.59-26.06-24.74c-2.78,1.9-7.17,3.66-11.71,4.69c7.91,9.66,14.93,20.64,20.64,33.09
	c0.59,1.17,0.88,1.9,1.32,2.05C283.36,386.9,284.09,386.46,284.68,386.17z M275.01,390.27c0.73-0.29,1.17-0.44,1.46-1.02
	c0.15-0.59-0.29-1.9-0.29-1.9c-5.42-13.32-12.01-25.48-19.03-34.85c-3.81,0.73-11.13,1.17-13.76,1.17
	c0.44,13.47,0.73,26.79,0.88,39.68c0,1.17,0.15,1.76,0.59,2.05c0.29,0.29,0.88,0.44,1.46,0.44
	C255.1,395.68,267.69,393.05,275.01,390.27z M284.53,491.14c0-0.29-0.29-0.29-0.29-0.29c-0.29,0-0.73,0.15-1.76,0.44
	c-15.37,4.83-28.7,6-37.34,6.15c-1.17,0-1.46,0.44-1.61,1.76l-0.73,11.42c0,0,17.28,0.44,34.99-7.03c2.49-3.22,4.54-7.03,6.3-11.27
	C284.24,491.88,284.38,491.58,284.53,491.14z M320.4,428.04c0-0.29-0.29,0-0.29,0c-4.1,4.1-11.57,9.66-20.35,14.06
	c-2.78,1.46-3.07,2.49-3.22,4.98c0.15,14.2-1.61,25.04-4.69,34.26c0,0-0.29,0.73,0.59,0.29s13.62-6.59,22.4-15.52
	c2.93-2.93,5.27-7.32,5.71-12.01C322.45,438.58,320.4,428.04,320.4,428.04z M324.79,409.89c5.86-10.1,5.86-18.45,5.86-18.45
	c0-0.59,0-1.02-0.15-1.32c-2.64-11.57-8.78-22.55-18.01-32.65c0.15,1.02,0.15,1.9,0.15,2.93c0,3.51-0.73,7.17-2.49,10.98
	c-0.59,1.32-0.88,2.2-0.88,2.93s0.29,1.17,0.73,2.05C310.15,376.06,319.52,388.8,324.79,409.89z M191.12,438.58
	c0.88-14.35,4.83-29.43,10.25-43.78c0.15-0.29,0.15-0.59,0.15-0.73c0-0.44-0.29-0.73-1.02-1.02c-9.08-3.95-15.96-9.37-20.5-15.23
	c0,0-0.29-0.29,0-0.59c0.29-0.29,0.59,0,0.59,0c5.12,4.98,12.59,9.08,21.23,12.3c0.44,0.15,0.59,0.15,0.88,0.15
	c0.44,0,0.73-0.29,1.32-1.46c5.86-13.47,13.47-26.21,22.11-36.75c-7.32-1.76-14.79-5.71-16.54-9.96c0,0-0.29-0.44,0.15-0.73
	c0.44-0.15,0.73,0.29,0.73,0.29c8.05,8.78,31.63,8.2,31.63,8.2c9.81,0,30.16-3.37,30.16-11.71c0-7.47-10.83-11.42-30.45-11.71
	c-59.44,0-91.36,51.54-91.36,92.39c0,49.34,41.87,92.39,90.34,92.39c0-0.73-0.59-11.57-0.59-11.57c0-1.17-0.29-1.61-1.76-1.76
	c0,0-21.08-1.61-27.96-5.12c-0.29-0.15-0.15-0.44,0.29-0.44c0,0,14.2,2.49,27.82,2.49c0,0,1.46,0.15,1.46-1.61
	c0-1.46-0.59-34.99-0.59-34.99c-0.15-2.49-0.44-2.93-2.93-3.07c-14.64-0.73-28.99-3.81-41.43-9.08c-0.29-0.15-0.44-0.15-0.73-0.15
	c-0.29,0.15-0.29,0.73-0.29,0.73c-1.17,15.52,0.59,30.6,0.59,30.6c0,0.29,0,0.44-0.29,0.44s-0.29-0.29-0.29-0.29
	c-2.2-8.35-3.37-17.42-3.37-27.09c0-0.73,0.15-4.69,0.15-4.69c0-1.02-0.44-1.76-1.32-2.2c-5.86-2.93-11.13-6.59-15.81-10.25
	c0,0-0.29-0.29,0-0.59c0.29-0.15,0.44,0,0.44,0c4.83,3.07,10.4,5.71,16.11,8.05h0.73C190.97,439.9,190.97,439.46,191.12,438.58
	 M305.17,366.25c1.61-4.1,1.9-9.81,0.15-13.91c-1.61-3.81-6.74-7.76-6.74-7.76c-7.91-6.15-16.69-9.96-20.79-11.57
	c0.73,1.32,1.17,2.64,1.17,3.95c0,2.34-1.17,4.69-3.22,7.17c10.4,6,19.03,13.18,26.65,21.96c0,0,1.17,1.46,1.9,1.46
	C304.74,367.43,305.17,366.25,305.17,366.25z M327.58,434.34c0,6.3-0.59,12.59-1.76,18.45c5.12-8.78,9.22-21.67,9.22-36.6
	c0-4.25-0.29-8.49-1.02-12.88c-0.88,4.39-2.34,8.78-4.83,12.88c-1.61,2.78-2.34,4.69-2.05,6.59
	C327.43,428.92,327.58,434.34,327.58,434.34z M287.75,492.02c-1.61,3.37-3.51,6.59-5.56,9.52c10.98-5.42,23.43-16.11,31.92-27.09
	c-6.59,5.27-14.06,9.81-22.55,13.32C289.95,488.66,288.48,490.56,287.75,492.02z M239.44,404.03c0-1.9-0.88-2.93-2.64-3.07
	c-10.83-0.44-21.23-2.49-30.45-5.71c-0.44-0.15-0.73-0.29-1.02-0.29s-0.59,0.15-0.73,0.88c-8.49,21.38-10.25,44.51-10.25,44.51
	c-0.15,1.02,0.15,1.32,0.88,1.61c0,0,18.01,6.88,41.14,6.88c0,0,1.61,0,2.05-0.44c0.59-0.59,0.73-1.02,0.59-2.93
	C239.29,434.19,239.44,404.03,239.44,404.03z M207.22,389.39c-0.59,1.17-0.29,1.61-0.29,1.61c0.15,0.29,0.59,0.44,0.59,0.44
	c6.88,2.34,20.21,4.54,29.58,4.54c1.02,0,1.61-0.15,2.05-0.59s0.59-1.17,0.73-2.34l0,0c0.29-12.88,0.59-26.35,1.32-39.39
	c-3.95-0.15-8.93-0.73-12.3-1.46C220.11,363.18,212.93,375.62,207.22,389.39 M246.61,448.68c6.44-0.29,22.99-1.46,39.68-7.91
	c2.34-0.88,2.78-1.9,2.78-3.66c0-0.44,0-0.88-0.15-1.46c-1.61-12.74-4.69-25.48-8.93-38.21c-0.59-1.61-0.88-1.9-1.32-1.9
	c-0.29,0-0.73,0.15-1.32,0.29c-9.22,3.07-19.33,4.83-30.01,5.12c-2.05,0.15-2.64,1.46-2.64,2.93c0,6.59,0.15,16.98,0.15,31.04
	c0,3.51,0,8.35,0,11.71c0,0,0,1.02,0.44,1.61C245.29,448.68,245.88,448.83,246.61,448.68z M105.76,481.19
	c7.03,18.74,24.45,20.35,36.16,31.77c2.2,2.2,4.39,4.25,6.88,5.56l0.15-0.15c-2.78-2.93-5.86-6.15-7.76-9.96
	c-6.88-11.27-4.39-27.23-9.66-39.39c4.69,6.59,8.93,13.47,11.71,21.08c4.25,12.3,5.86,26.21,15.52,35.43
	c-10.54-4.1-22.84-3.22-32.21-10.69C116.89,507.1,107.66,494.95,105.76,481.19z M203.56,535.07c1.46,0,2.64-0.44,2.64-0.44
	c-9.08-2.05-16.84-3.66-24.6-10.25c-10.25-8.64-18.16-17.28-29.58-24.3c1.46,0.88,7.91,14.2,13.32,22.11
	c3.81,5.56,9.81,8.64,15.23,9.96c4.54,1.17,5.56,1.61,5.56,1.61s-0.73,0.44-2.49,0c0,0-15.08-3.07-23.28-3.07
	c-32.5,0-41-12.45-41-12.45c9.66,17.42,29.58,24.01,42.61,24.01C180.72,542.1,194.63,535.07,203.56,535.07z M323.18,542.1
	c13.03,0,32.94-6.44,42.61-24.01c0,0-8.49,12.45-41,12.45c-8.2,0-23.28,3.07-23.28,3.07c-1.76,0.44-2.49,0-2.49,0
	s1.02-0.44,5.56-1.61c5.27-1.32,11.42-4.39,15.23-9.96c5.42-7.91,11.86-21.23,13.32-22.11c-11.42,7.03-19.33,15.81-29.58,24.3
	c-7.76,6.44-15.52,8.2-24.6,10.25c0,0,1.17,0.44,2.64,0.44C290.68,535.07,304.59,542.1,323.18,542.1z M120.84,489.97
	c3.22,2.78,9.81,8.78,10.98,10.54c0,0-0.73-2.49-1.46-5.56c-0.73-3.07-1.76-10.54-4.83-16.98c-2.34-5.12-12.3-21.52-14.2-30.6
	C111.32,447.37,104.15,475.77,120.84,489.97z M326.4,525.55c10.54-4.1,22.69-3.22,32.06-10.69c9.81-7.76,19.18-19.91,21.08-33.68
	c-7.03,18.74-24.45,20.21-36.31,31.63c-2.2,2.2-4.39,4.25-6.88,5.56l-0.15-0.15c2.64-2.93,5.86-6.15,7.76-9.96
	c6.88-11.27,4.39-27.23,9.66-39.39c-4.69,6.59-8.93,13.47-11.71,21.08C337.68,502.42,336.07,516.18,326.4,525.55z M300.49,546.05
	c-16.25-6.59-33.09-14.93-52.56-10.98c-2.2,0.44-3.95,0.88-6,0.88c-1.9,0-3.66-0.44-5.86-0.88c-19.62-3.95-36.46,4.39-52.71,10.98
	c-12.15,4.39-27.96,3.66-38.65-3.07c5.27,6.15,12.3,9.96,19.62,12.59c13.47,4.98,29.58,1.61,40.7-5.71
	c9.66-4.98,17.86-14.93,30.45-11.27c-12.88,5.56-24.6,13.47-35.29,23.57l6.59,5.12c0,0,12.45-16.84,34.99-26.94
	c22.4,10.1,34.99,26.94,34.99,26.94l6.74-5.12c-10.69-10.1-22.4-17.86-35.29-23.57c12.59-3.81,20.94,6.15,30.45,11.27
	c11.27,7.32,27.23,10.69,40.85,5.71c7.32-2.64,14.35-6.44,19.62-12.59C328.45,549.86,312.64,550.59,300.49,546.05z M364.47,489.97
	c16.69-14.2,9.66-42.61,9.66-42.61c-1.9,9.08-11.86,25.62-14.2,30.6c-3.07,6.44-4.1,13.91-4.83,16.98
	c-0.73,3.07-1.46,5.56-1.46,5.56C354.66,498.76,361.25,492.75,364.47,489.97z M100.93,409.3c4.98,0.44,9.81,0.88,14.79,1.32
	c3.95,0.29,6-1.17,6.3-4.98c0.15-1.76,0-3.07-0.73-4.25c-0.88-1.46-2.2-2.2-4.98-2.49c-4.69-0.59-9.52-1.02-14.2-1.61
	c-0.59,1.02-1.02,2.05-1.61,3.07c-0.29,0-0.73,0-1.02-0.15c0.29-3.07,0.73-6.15,1.02-9.22c0.29,0,0.73,0.15,1.02,0.15
	c0.29,1.17,0.59,2.2,0.88,3.37c4.54,0.59,9.08,1.02,13.62,1.61c3.37,0.44,5.42,1.61,6.74,3.95c1.02,1.9,1.46,4.1,1.17,6.88
	c-0.59,5.86-3.66,8.93-8.64,8.49c-4.98-0.44-9.81-0.73-14.79-1.17c-0.59,1.02-1.02,2.05-1.46,3.07c-0.29,0-0.73,0-1.02-0.15
	c0.29-3.81,0.59-7.47,0.88-11.27c0.29,0,0.73,0,1.02,0.15C100.34,407.25,100.64,408.27,100.93,409.3z M108.83,380.31
	c5.27,1.76,10.69,3.51,15.96,5.27c0.73-0.73,1.46-1.61,2.2-2.34c0.29,0.15,0.59,0.15,1.02,0.29c-0.88,2.64-1.76,5.27-2.64,7.91
	c-0.29-0.15-0.73-0.15-1.02-0.29c-0.15-1.17-0.15-2.2-0.29-3.37c-6.3-2.05-12.59-4.1-18.89-6.15c-0.73,0.88-1.46,1.76-2.2,2.64
	c-0.15,0-0.59,0-0.88-0.15c0.73-2.34,1.46-4.69,2.34-7.17c6.59-2.34,13.18-4.69,19.77-6.88c-4.39-1.61-8.93-3.22-13.32-4.69
	c-0.73,0.73-1.46,1.61-2.2,2.49c-0.29-0.15-0.59-0.15-1.02-0.29c0.88-2.78,1.9-5.56,2.93-8.2c0.29,0.15,0.59,0.29,0.88,0.29
	c0,1.17,0,2.34,0.15,3.51c7.03,2.49,14.06,5.12,21.08,7.61c-0.15,0.59-0.44,1.17-0.59,1.76
	C124.35,374.89,116.59,377.53,108.83,380.31z M143.53,337.26l5.56,3.95c-1.32,3.37-2.34,5.42-3.66,7.32
	c-4.54,6.3-10.83,7.61-17.13,3.07c-6.3-4.39-8.35-10.83-2.93-18.45c1.17-1.76,3.07-3.51,5.42-5.71l0.44-0.44l4.83,3.51l-1.02,1.46
	l-4.83-1.02c-0.73,0.44-1.17,0.88-1.61,1.46c-4.69,5.86-3.22,11.27,2.49,15.37c5.12,3.66,10.54,2.78,13.91-1.9
	c0.59-0.88,0.73-1.46,0.73-1.46l-4.83-3.37l-2.93,1.76l-0.88-0.59l6.3-8.64l0.88,0.59L143.53,337.26z M153.64,334.63l-14.06-14.2
	l-3.07,1.17l-0.73-0.73l7.76-7.61l0.73,0.73l-1.32,3.07l14.2,14.49l4.39-4.39l-1.46-4.83l1.02-1.17l3.95,4.83
	c0,0-6.15,5.86-12.15,12.15l-0.73-0.73L153.64,334.63z M160.52,315.01c-4.54-6.59-3.51-13.62,3.37-18.01
	c6.3-3.95,12.45-2.2,16.11,3.81c3.95,6.59,2.93,13.76-3.37,17.86C170.91,322.48,164.62,320.87,160.52,315.01L160.52,315.01z
	 M164.18,311.64c3.81,5.42,8.64,7.17,12.01,5.12c3.22-2.05,3.37-7.17,0-12.88c-3.22-5.27-7.76-7.61-11.71-4.98
	C160.08,301.54,160.37,306.37,164.18,311.64L164.18,311.64z M191.27,307.54l-7.91-18.45h-3.22l-0.44-0.88l11.13-4.69
	c2.64-1.02,4.25-1.17,6-0.59c1.61,0.59,2.64,1.61,3.22,3.07c1.17,3.07-0.44,6.15-4.39,8.2c4.83-1.76,8.05-0.73,9.52,2.78
	c0.73,1.9,0.44,3.95-0.59,5.56c-1.02,1.61-2.64,2.64-5.71,3.95l-9.52,4.25l-0.44-0.88L191.27,307.54z M191.41,295.39l1.46-0.59
	c2.78-1.17,3.95-3.66,2.78-6.44c-1.02-2.78-3.22-3.81-6-2.64l-2.05,1.02L191.41,295.39z M195.8,306.08l1.32-0.59
	c1.9-0.73,2.78-1.32,3.37-2.64c0.59-1.17,0.59-2.64,0-3.95c-1.17-3.07-3.66-3.95-6.88-2.64l-1.76,0.73L195.8,306.08z M214.84,291.88
	l-1.32,7.47l3.07,0.73l0.15,1.02l-8.05,1.9l-0.15-1.02l2.49-1.76l5.56-24.3l1.76-0.29l12.59,20.94l2.93,0.73l0.15,1.02l-10.4,1.46
	l-0.15-1.02l2.49-1.76l-3.66-6.59L214.84,291.88z M215.13,290.12l6.15-1.17l-4.25-7.76L215.13,290.12z M239.14,296.12l0.15-19.91
	l-3.07-1.32v-1.02c5.71-0.15,10.83-0.15,10.83-0.15v1.02l-3.07,1.32l-0.29,20.35l5.71,0.15l2.34-4.39h1.46l-0.59,6.3
	c0,0-9.22-0.44-16.84-0.15v-1.02L239.14,296.12z M280.28,302.27l3.07-4.25l1.61,0.44l-1.9,5.71h-0.59
	c-3.37-0.15-5.27-0.29-7.47-0.88c-7.17-1.9-10.25-7.47-8.64-14.79c1.76-7.61,7.17-11.27,16.25-9.08c2.2,0.44,4.39,1.61,7.03,3.07
	l-1.61,5.86l-1.61-0.29l-0.44-5.27c0,0-0.88-0.44-1.9-0.73c-7.91-2.05-11.71,1.76-13.03,7.76c-1.46,6.15,1.17,10.83,6.59,12.45
	C278.82,301.98,279.41,302.12,280.28,302.27L280.28,302.27z M326.11,322.04l16.84-7.61l5.56,5.56l-0.73,0.73l-3.22-1.02l-13.76,14.2
	l1.61,3.07l-0.73,0.73c-3.66-3.66-7.32-7.17-7.32-7.17l0.73-0.88l3.07,1.02l11.13-11.71l-18.59,8.2l-0.73-0.59l5.56-19.62
	l-10.1,12.74l1.46,2.93l-0.73,0.73l-7.03-4.98l0.73-0.73l3.22,1.02l12.59-15.23l-1.46-2.93l0.73-0.73l6.44,4.69L326.11,322.04z
	 M346.61,339.9l-6.3,4.69l0.73,3.22l-0.73,0.59c-3.07-4.25-6.59-8.49-6.59-8.49l0.88-0.59l2.78,1.61l15.52-12.15l-0.73-3.07
	l0.88-0.59l6.44,8.35c2.2,2.93,2.78,4.69,2.93,6.74c0,2.05-0.88,3.81-2.64,5.12c-3.66,2.64-8.2,1.32-11.57-3.22L346.61,339.9z
	 M348.66,339.9c1.17,1.61,2.05,2.2,3.07,2.49c1.61,0.29,3.37,0.15,4.83-1.02c1.46-1.02,2.34-2.34,2.49-3.66
	c0.15-1.32-0.15-2.34-1.17-3.66l-1.46-1.76l-8.64,6.74L348.66,339.9z M356.42,356.59l-7.47,0.59l0.15,3.07l-0.88,0.44
	c-1.9-3.51-4.1-7.17-4.1-7.17l0.88-0.59l2.34,2.05l24.89-1.46l0.88,2.05l-16.69,17.57l0.15,3.07l-0.88,0.44
	c-2.05-4.98-3.95-9.52-3.95-9.52l0.88-0.44l2.34,1.9l4.98-5.27L356.42,356.59z M358.32,356.44l2.78,5.56l6.3-6.15L358.32,356.44z
	 M361.98,392.46l5.42,0.59l0.44,1.61l-5.86,1.17l-0.29-0.44c-1.76-2.93-2.49-4.69-3.07-6.74c-2.05-7.32,1.17-12.45,8.49-14.93
	c7.61-2.49,13.91,1.32,15.96,9.37c0.59,2.2,0.88,4.83,0.88,7.76l-5.86,1.46l-0.44-1.61l4.25-2.93c0-0.59-0.15-1.46-0.29-2.2
	c-1.9-6.73-6.88-9.37-13.18-7.32c-6.15,2.05-8.93,6.15-7.32,11.86C361.25,391,361.54,391.58,361.98,392.46L361.98,392.46z
	 M384.82,409.74l-20.06,1.46l-1.02,4.1l-1.02,0.15c-0.15-6.59-1.02-12.59-1.02-12.59l1.02-0.15l1.61,3.95l20.06-1.46l-0.44-5.12
	l-5.12-1.46l-0.15-1.46l6.88-0.59c0,0,1.61,10.83,1.61,21.52l-6.88,0.59l-0.15-1.46l4.83-2.2L384.82,409.74z M291.7,295.68
	c3.37-7.32,10.1-9.96,17.28-6.15c6.74,3.37,8.2,9.66,4.83,15.81c-3.66,6.74-10.54,9.52-17.13,6.15
	C290.53,308.42,288.63,302.27,291.7,295.68L291.7,295.68z M296.39,297c-2.78,6-1.9,11.13,1.61,12.88c3.37,1.76,7.91-0.73,11.13-6.3
	c2.93-5.42,2.64-10.54-1.61-12.74C303.13,288.51,299.17,291.14,296.39,297z M296.24,435.65c-0.59-0.44-0.73-2.93-0.73-2.93
	c-1.61-12.45-4.69-25.04-9.52-37.34c-0.29-0.73-0.44-1.17-0.44-1.61c0-0.59,0.29-1.17,1.76-1.9c6.3-2.93,11.42-6.59,15.23-10.4
	c0.59-0.59,1.02-0.88,1.32-0.88l0,0c0.29,0,0.59,0.29,1.17,1.17c5.71,9.81,9.96,20.79,12.88,32.36c0.29,1.32,0.44,2.34,0.44,3.07
	c0,1.61-0.59,2.78-2.05,4.25c-3.81,3.81-10.54,9.22-17.57,13.47C298.44,434.92,296.68,435.95,296.24,435.65z M290.09,450
	c0,0,0-2.2-0.73-2.64c-0.73-0.44-2.49,0.29-2.49,0.29c-12.3,4.39-25.77,6.59-39.82,7.03c-2.64,0.15-2.49,0.73-2.64,2.93
	c-0.15,12.45-0.44,24.16-0.73,34.85c0,0-0.15,1.02,0.29,1.46c0.29,0.29,1.46,0.29,1.46,0.29c14.06-0.88,27.38-3.95,39.53-8.93
	c1.76-0.73,2.05-1.9,2.64-3.95C290.97,467.86,290.09,450,290.09,450z M284.68,386.17c5.56-2.93,10.69-6.44,13.91-9.81
	c0.73-0.73,1.02-1.32,1.02-2.05c0-0.73-0.29-1.46-1.02-2.64c-7.47-10.4-16.4-18.59-26.06-24.74c-2.78,1.9-7.17,3.66-11.71,4.69
	c7.91,9.66,14.93,20.64,20.64,33.09c0.59,1.17,0.88,1.9,1.32,2.05C283.36,386.9,284.09,386.46,284.68,386.17z M275.01,390.27
	c0.73-0.29,1.17-0.44,1.46-1.02c0.15-0.59-0.29-1.9-0.29-1.9c-5.42-13.32-12.01-25.48-19.03-34.85c-3.81,0.73-11.13,1.17-13.76,1.17
	c0.44,13.47,0.73,26.79,0.88,39.68c0,1.17,0.15,1.76,0.59,2.05c0.29,0.29,0.88,0.44,1.46,0.44
	C255.1,395.68,267.69,393.05,275.01,390.27z M284.53,491.14c0-0.29-0.29-0.29-0.29-0.29c-0.29,0-0.73,0.15-1.76,0.44
	c-15.37,4.83-28.7,6-37.34,6.15c-1.17,0-1.46,0.44-1.61,1.76l-0.73,11.42c0,0,17.28,0.44,34.99-7.03c2.49-3.22,4.54-7.03,6.3-11.27
	C284.24,491.88,284.38,491.58,284.53,491.14z M320.4,428.04c0-0.29-0.29,0-0.29,0c-4.1,4.1-11.57,9.66-20.35,14.06
	c-2.78,1.46-3.07,2.49-3.22,4.98c0.15,14.2-1.61,25.04-4.69,34.26c0,0-0.29,0.73,0.59,0.29s13.62-6.59,22.4-15.52
	c2.93-2.93,5.27-7.32,5.71-12.01C322.45,438.58,320.4,428.04,320.4,428.04z M324.79,409.89c5.86-10.1,5.86-18.45,5.86-18.45
	c0-0.59,0-1.02-0.15-1.32c-2.64-11.57-8.78-22.55-18.01-32.65c0.15,1.02,0.15,1.9,0.15,2.93c0,3.51-0.73,7.17-2.49,10.98
	c-0.59,1.32-0.88,2.2-0.88,2.93s0.29,1.17,0.73,2.05C310.15,376.06,319.52,388.8,324.79,409.89z M191.12,438.58
	c0.88-14.35,4.83-29.43,10.25-43.78c0.15-0.29,0.15-0.59,0.15-0.73c0-0.44-0.29-0.73-1.02-1.02c-9.08-3.95-15.96-9.37-20.5-15.23
	c0,0-0.29-0.29,0-0.59c0.29-0.29,0.59,0,0.59,0c5.12,4.98,12.59,9.08,21.23,12.3c0.44,0.15,0.59,0.15,0.88,0.15
	c0.44,0,0.73-0.29,1.32-1.46c5.86-13.47,13.47-26.21,22.11-36.75c-7.32-1.76-14.79-5.71-16.54-9.96c0,0-0.29-0.44,0.15-0.73
	c0.44-0.15,0.73,0.29,0.73,0.29c8.05,8.78,31.63,8.2,31.63,8.2c9.81,0,30.16-3.37,30.16-11.71c0-7.47-10.83-11.42-30.45-11.71
	c-59.44,0-91.36,51.54-91.36,92.39c0,49.34,41.87,92.39,90.34,92.39c0-0.73-0.59-11.57-0.59-11.57c0-1.17-0.29-1.61-1.76-1.76
	c0,0-21.08-1.61-27.96-5.12c-0.29-0.15-0.15-0.44,0.29-0.44c0,0,14.2,2.49,27.82,2.49c0,0,1.46,0.15,1.46-1.61
	c0-1.46-0.59-34.99-0.59-34.99c-0.15-2.49-0.44-2.93-2.93-3.07c-14.64-0.73-28.99-3.81-41.43-9.08c-0.29-0.15-0.44-0.15-0.73-0.15
	c-0.29,0.15-0.29,0.73-0.29,0.73c-1.17,15.52,0.59,30.6,0.59,30.6c0,0.29,0,0.44-0.29,0.44s-0.29-0.29-0.29-0.29
	c-2.2-8.35-3.37-17.42-3.37-27.09c0-0.73,0.15-4.69,0.15-4.69c0-1.02-0.44-1.76-1.32-2.2c-5.86-2.93-11.13-6.59-15.81-10.25
	c0,0-0.29-0.29,0-0.59c0.29-0.15,0.44,0,0.44,0c4.83,3.07,10.4,5.71,16.11,8.05h0.73C190.97,439.9,190.97,439.46,191.12,438.58
	 M305.17,366.25c1.61-4.1,1.9-9.81,0.15-13.91c-1.61-3.81-6.74-7.76-6.74-7.76c-7.91-6.15-16.69-9.96-20.79-11.57
	c0.73,1.32,1.17,2.64,1.17,3.95c0,2.34-1.17,4.69-3.22,7.17c10.4,6,19.03,13.18,26.65,21.96c0,0,1.17,1.46,1.9,1.46
	C304.74,367.43,305.17,366.25,305.17,366.25z M327.58,434.34c0,6.3-0.59,12.59-1.76,18.45c5.12-8.78,9.22-21.67,9.22-36.6
	c0-4.25-0.29-8.49-1.02-12.88c-0.88,4.39-2.34,8.78-4.83,12.88c-1.61,2.78-2.34,4.69-2.05,6.59
	C327.43,428.92,327.58,434.34,327.58,434.34z M287.75,492.02c-1.61,3.37-3.51,6.59-5.56,9.52c10.98-5.42,23.43-16.11,31.92-27.09
	c-6.59,5.27-14.06,9.81-22.55,13.32C289.95,488.66,288.48,490.56,287.75,492.02z M239.44,404.03c0-1.9-0.88-2.93-2.64-3.07
	c-10.83-0.44-21.23-2.49-30.45-5.71c-0.44-0.15-0.73-0.29-1.02-0.29s-0.59,0.15-0.73,0.88c-8.49,21.38-10.25,44.51-10.25,44.51
	c-0.15,1.02,0.15,1.32,0.88,1.61c0,0,18.01,6.88,41.14,6.88c0,0,1.61,0,2.05-0.44c0.59-0.59,0.73-1.02,0.59-2.93
	C239.29,434.19,239.44,404.03,239.44,404.03z M207.22,389.39c-0.59,1.17-0.29,1.61-0.29,1.61c0.15,0.29,0.59,0.44,0.59,0.44
	c6.88,2.34,20.21,4.54,29.58,4.54c1.02,0,1.61-0.15,2.05-0.59s0.59-1.17,0.73-2.34l0,0c0.29-12.88,0.59-26.35,1.32-39.39
	c-3.95-0.15-8.93-0.73-12.3-1.46C220.11,363.18,212.93,375.62,207.22,389.39 M246.61,448.68c6.44-0.29,22.99-1.46,39.68-7.91
	c2.34-0.88,2.78-1.9,2.78-3.66c0-0.44,0-0.88-0.15-1.46c-1.61-12.74-4.69-25.48-8.93-38.21c-0.59-1.61-0.88-1.9-1.32-1.9
	c-0.29,0-0.73,0.15-1.32,0.29c-9.22,3.07-19.33,4.83-30.01,5.12c-2.05,0.15-2.64,1.46-2.64,2.93c0,6.59,0.15,16.98,0.15,31.04
	c0,3.51,0,8.35,0,11.71c0,0,0,1.02,0.44,1.61C245.29,448.68,245.88,448.83,246.61,448.68z M105.76,481.19
	c7.03,18.74,24.45,20.35,36.16,31.77c2.2,2.2,4.39,4.25,6.88,5.56l0.15-0.15c-2.78-2.93-5.86-6.15-7.76-9.96
	c-6.88-11.27-4.39-27.23-9.66-39.39c4.69,6.59,8.93,13.47,11.71,21.08c4.25,12.3,5.86,26.21,15.52,35.43
	c-10.54-4.1-22.84-3.22-32.21-10.69C116.89,507.1,107.66,494.95,105.76,481.19z M203.56,535.07c1.46,0,2.64-0.44,2.64-0.44
	c-9.08-2.05-16.84-3.66-24.6-10.25c-10.25-8.64-18.16-17.28-29.58-24.3c1.46,0.88,7.91,14.2,13.32,22.11
	c3.81,5.56,9.81,8.64,15.23,9.96c4.54,1.17,5.56,1.61,5.56,1.61s-0.73,0.44-2.49,0c0,0-15.08-3.07-23.28-3.07
	c-32.5,0-41-12.45-41-12.45c9.66,17.42,29.58,24.01,42.61,24.01C180.72,542.1,194.63,535.07,203.56,535.07z M323.18,542.1
	c13.03,0,32.94-6.44,42.61-24.01c0,0-8.49,12.45-41,12.45c-8.2,0-23.28,3.07-23.28,3.07c-1.76,0.44-2.49,0-2.49,0
	s1.02-0.44,5.56-1.61c5.27-1.32,11.42-4.39,15.23-9.96c5.42-7.91,11.86-21.23,13.32-22.11c-11.42,7.03-19.33,15.81-29.58,24.3
	c-7.76,6.44-15.52,8.2-24.6,10.25c0,0,1.17,0.44,2.64,0.44C290.68,535.07,304.59,542.1,323.18,542.1z M120.84,489.97
	c3.22,2.78,9.81,8.78,10.98,10.54c0,0-0.73-2.49-1.46-5.56c-0.73-3.07-1.76-10.54-4.83-16.98c-2.34-5.12-12.3-21.52-14.2-30.6
	C111.32,447.37,104.15,475.77,120.84,489.97z M326.4,525.55c10.54-4.1,22.69-3.22,32.06-10.69c9.81-7.76,19.18-19.91,21.08-33.68
	c-7.03,18.74-24.45,20.21-36.31,31.63c-2.2,2.2-4.39,4.25-6.88,5.56l-0.15-0.15c2.64-2.93,5.86-6.15,7.76-9.96
	c6.88-11.27,4.39-27.23,9.66-39.39c-4.69,6.59-8.93,13.47-11.71,21.08C337.68,502.42,336.07,516.18,326.4,525.55z M300.49,546.05
	c-16.25-6.59-33.09-14.93-52.56-10.98c-2.2,0.44-3.95,0.88-6,0.88c-1.9,0-3.66-0.44-5.86-0.88c-19.62-3.95-36.46,4.39-52.71,10.98
	c-12.15,4.39-27.96,3.66-38.65-3.07c5.27,6.15,12.3,9.96,19.62,12.59c13.47,4.98,29.58,1.61,40.7-5.71
	c9.66-4.98,17.86-14.93,30.45-11.27c-12.88,5.56-24.6,13.47-35.29,23.57l6.59,5.12c0,0,12.45-16.84,34.99-26.94
	c22.4,10.1,34.99,26.94,34.99,26.94l6.74-5.12c-10.69-10.1-22.4-17.86-35.29-23.57c12.59-3.81,20.94,6.15,30.45,11.27
	c11.27,7.32,27.23,10.69,40.85,5.71c7.32-2.64,14.35-6.44,19.62-12.59C328.45,549.86,312.64,550.59,300.49,546.05z M364.47,489.97
	c16.69-14.2,9.66-42.61,9.66-42.61c-1.9,9.08-11.86,25.62-14.2,30.6c-3.07,6.44-4.1,13.91-4.83,16.98
	c-0.73,3.07-1.46,5.56-1.46,5.56C354.66,498.76,361.25,492.75,364.47,489.97z M100.93,409.3c4.98,0.44,9.81,0.88,14.79,1.32
	c3.95,0.29,6-1.17,6.3-4.98c0.15-1.76,0-3.07-0.73-4.25c-0.88-1.46-2.2-2.2-4.98-2.49c-4.69-0.59-9.52-1.02-14.2-1.61
	c-0.59,1.02-1.02,2.05-1.61,3.07c-0.29,0-0.73,0-1.02-0.15c0.29-3.07,0.73-6.15,1.02-9.22c0.29,0,0.73,0.15,1.02,0.15
	c0.29,1.17,0.59,2.2,0.88,3.37c4.54,0.59,9.08,1.02,13.62,1.61c3.37,0.44,5.42,1.61,6.74,3.95c1.02,1.9,1.46,4.1,1.17,6.88
	c-0.59,5.86-3.66,8.93-8.64,8.49c-4.98-0.44-9.81-0.73-14.79-1.17c-0.59,1.02-1.02,2.05-1.46,3.07c-0.29,0-0.73,0-1.02-0.15
	c0.29-3.81,0.59-7.47,0.88-11.27c0.29,0,0.73,0,1.02,0.15C100.34,407.25,100.64,408.27,100.93,409.3z M108.83,380.31
	c5.27,1.76,10.69,3.51,15.96,5.27c0.73-0.73,1.46-1.61,2.2-2.34c0.29,0.15,0.59,0.15,1.02,0.29c-0.88,2.64-1.76,5.27-2.64,7.91
	c-0.29-0.15-0.73-0.15-1.02-0.29c-0.15-1.17-0.15-2.2-0.29-3.37c-6.3-2.05-12.59-4.1-18.89-6.15c-0.73,0.88-1.46,1.76-2.2,2.64
	c-0.15,0-0.59,0-0.88-0.15c0.73-2.34,1.46-4.69,2.34-7.17c6.59-2.34,13.18-4.69,19.77-6.88c-4.39-1.61-8.93-3.22-13.32-4.69
	c-0.73,0.73-1.46,1.61-2.2,2.49c-0.29-0.15-0.59-0.15-1.02-0.29c0.88-2.78,1.9-5.56,2.93-8.2c0.29,0.15,0.59,0.29,0.88,0.29
	c0,1.17,0,2.34,0.15,3.51c7.03,2.49,14.06,5.12,21.08,7.61c-0.15,0.59-0.44,1.17-0.59,1.76
	C124.35,374.89,116.59,377.53,108.83,380.31z M143.53,337.26l5.56,3.95c-1.32,3.37-2.34,5.42-3.66,7.32
	c-4.54,6.3-10.83,7.61-17.13,3.07c-6.3-4.39-8.35-10.83-2.93-18.45c1.17-1.76,3.07-3.51,5.42-5.71l0.44-0.44l4.83,3.51l-1.02,1.46
	l-4.83-1.02c-0.73,0.44-1.17,0.88-1.61,1.46c-4.69,5.86-3.22,11.27,2.49,15.37c5.12,3.66,10.54,2.78,13.91-1.9
	c0.59-0.88,0.73-1.46,0.73-1.46l-4.83-3.37l-2.93,1.76l-0.88-0.59l6.3-8.64l0.88,0.59L143.53,337.26z M153.64,334.63l-14.06-14.2
	l-3.07,1.17l-0.73-0.73l7.76-7.61l0.73,0.73l-1.32,3.07l14.2,14.49l4.39-4.39l-1.46-4.83l1.02-1.17l3.95,4.83
	c0,0-6.15,5.86-12.15,12.15l-0.73-0.73L153.64,334.63z M160.52,315.01c-4.54-6.59-3.51-13.62,3.37-18.01
	c6.3-3.95,12.45-2.2,16.11,3.81c3.95,6.59,2.93,13.76-3.37,17.86C170.91,322.48,164.62,320.87,160.52,315.01L160.52,315.01z
	 M164.18,311.64c3.81,5.42,8.64,7.17,12.01,5.12c3.22-2.05,3.37-7.17,0-12.88c-3.22-5.27-7.76-7.61-11.71-4.98
	C160.08,301.54,160.37,306.37,164.18,311.64L164.18,311.64z M191.27,307.54l-7.91-18.45h-3.22l-0.44-0.88l11.13-4.69
	c2.64-1.02,4.25-1.17,6-0.59c1.61,0.59,2.64,1.61,3.22,3.07c1.17,3.07-0.44,6.15-4.39,8.2c4.83-1.76,8.05-0.73,9.52,2.78
	c0.73,1.9,0.44,3.95-0.59,5.56c-1.02,1.61-2.64,2.64-5.71,3.95l-9.52,4.25l-0.44-0.88L191.27,307.54z M191.41,295.39l1.46-0.59
	c2.78-1.17,3.95-3.66,2.78-6.44c-1.02-2.78-3.22-3.81-6-2.64l-2.05,1.02L191.41,295.39z M195.8,306.08l1.32-0.59
	c1.9-0.73,2.78-1.32,3.37-2.64c0.59-1.17,0.59-2.64,0-3.95c-1.17-3.07-3.66-3.95-6.88-2.64l-1.76,0.73L195.8,306.08z M214.84,291.88
	l-1.32,7.47l3.07,0.73l0.15,1.02l-8.05,1.9l-0.15-1.02l2.49-1.76l5.56-24.3l1.76-0.29l12.59,20.94l2.93,0.73l0.15,1.02l-10.4,1.46
	l-0.15-1.02l2.49-1.76l-3.66-6.59L214.84,291.88z M215.13,290.12l6.15-1.17l-4.25-7.76L215.13,290.12z M239.14,296.12l0.15-19.91
	l-3.07-1.32v-1.02c5.71-0.15,10.83-0.15,10.83-0.15v1.02l-3.07,1.32l-0.29,20.35l5.71,0.15l2.34-4.39h1.46l-0.59,6.3
	c0,0-9.22-0.44-16.84-0.15v-1.02L239.14,296.12z M280.28,302.27l3.07-4.25l1.61,0.44l-1.9,5.71h-0.59
	c-3.37-0.15-5.27-0.29-7.47-0.88c-7.17-1.9-10.25-7.47-8.64-14.79c1.76-7.61,7.17-11.27,16.25-9.08c2.2,0.44,4.39,1.61,7.03,3.07
	l-1.61,5.86l-1.61-0.29l-0.44-5.27c0,0-0.88-0.44-1.9-0.73c-7.91-2.05-11.71,1.76-13.03,7.76c-1.46,6.15,1.17,10.83,6.59,12.45
	C278.82,301.98,279.41,302.12,280.28,302.27L280.28,302.27z M326.11,322.04l16.84-7.61l5.56,5.56l-0.73,0.73l-3.22-1.02l-13.76,14.2
	l1.61,3.07l-0.73,0.73c-3.66-3.66-7.32-7.17-7.32-7.17l0.73-0.88l3.07,1.02l11.13-11.71l-18.59,8.2l-0.73-0.59l5.56-19.62
	l-10.1,12.74l1.46,2.93l-0.73,0.73l-7.03-4.98l0.73-0.73l3.22,1.02l12.59-15.23l-1.46-2.93l0.73-0.73l6.44,4.69L326.11,322.04z
	 M346.61,339.9l-6.3,4.69l0.73,3.22l-0.73,0.59c-3.07-4.25-6.59-8.49-6.59-8.49l0.88-0.59l2.78,1.61l15.52-12.15l-0.73-3.07
	l0.88-0.59l6.44,8.35c2.2,2.93,2.78,4.69,2.93,6.74c0,2.05-0.88,3.81-2.64,5.12c-3.66,2.64-8.2,1.32-11.57-3.22L346.61,339.9z
	 M348.66,339.9c1.17,1.61,2.05,2.2,3.07,2.49c1.61,0.29,3.37,0.15,4.83-1.02c1.46-1.02,2.34-2.34,2.49-3.66
	c0.15-1.32-0.15-2.34-1.17-3.66l-1.46-1.76l-8.64,6.74L348.66,339.9z M356.42,356.59l-7.47,0.59l0.15,3.07l-0.88,0.44
	c-1.9-3.51-4.1-7.17-4.1-7.17l0.88-0.59l2.34,2.05l24.89-1.46l0.88,2.05l-16.69,17.57l0.15,3.07l-0.88,0.44
	c-2.05-4.98-3.95-9.52-3.95-9.52l0.88-0.44l2.34,1.9l4.98-5.27L356.42,356.59z M358.32,356.44l2.78,5.56l6.3-6.15L358.32,356.44z
	 M361.98,392.46l5.42,0.59l0.44,1.61l-5.86,1.17l-0.29-0.44c-1.76-2.93-2.49-4.69-3.07-6.74c-2.05-7.32,1.17-12.45,8.49-14.93
	c7.61-2.49,13.91,1.32,15.96,9.37c0.59,2.2,0.88,4.83,0.88,7.76l-5.86,1.46l-0.44-1.61l4.25-2.93c0-0.59-0.15-1.46-0.29-2.2
	c-1.9-6.73-6.88-9.37-13.18-7.32c-6.15,2.05-8.93,6.15-7.32,11.86C361.25,391,361.54,391.58,361.98,392.46L361.98,392.46z
	 M384.82,409.74l-20.06,1.46l-1.02,4.1l-1.02,0.15c-0.15-6.59-1.02-12.59-1.02-12.59l1.02-0.15l1.61,3.95l20.06-1.46l-0.44-5.12
	l-5.12-1.46l-0.15-1.46l6.88-0.59c0,0,1.61,10.83,1.61,21.52l-6.88,0.59l-0.15-1.46l4.83-2.2L384.82,409.74z M291.7,295.68
	c3.37-7.32,10.1-9.96,17.28-6.15c6.74,3.37,8.2,9.66,4.83,15.81c-3.66,6.74-10.54,9.52-17.13,6.15
	C290.53,308.42,288.63,302.27,291.7,295.68L291.7,295.68z M296.39,297c-2.78,6-1.9,11.13,1.61,12.88c3.37,1.76,7.91-0.73,11.13-6.3
	c2.93-5.42,2.64-10.54-1.61-12.74C303.13,288.51,299.17,291.14,296.39,297z"/>
</svg>
