<svg width="43" height="44" viewBox="0 0 43 44" fill="none" xmlns="http://www.w3.org/2000/svg">
<g id="Layer_x0020_1">
<g id="_1458799631056">
<g id="Group">
<path id="Vector" fill-rule="evenodd" clip-rule="evenodd" d="M21.5014 1.29504C32.937 1.29504 42.2076 10.5656 42.2076 22.0012C42.2076 33.4369 32.937 42.7075 21.5014 42.7075C10.0657 42.7075 0.795166 33.4369 0.795166 22.0012C0.795166 10.5656 10.0657 1.29504 21.5014 1.29504Z" stroke="#808080" stroke-width="2" stroke-miterlimit="22.9256"/>
</g>
<g id="Group_2">
<path id="Vector_2" fill-rule="evenodd" clip-rule="evenodd" d="M6.54539 14.0833C16.961 10.9481 26.8016 10.7156 36.2921 14.2333C37.5347 16.1884 37.5947 19.3286 37.8697 23.3838C35.9171 22.4888 25.774 21.3662 25.774 22.3088L25.7415 36.3996C22.6238 37.1896 18.7836 37.0046 17.186 36.3721L17.151 22.2613C12.5982 21.8787 9.41556 22.2238 5.13281 23.3238C5.31782 20.1136 4.63528 19.0586 6.54789 14.0833H6.54539Z" fill="#FAFAFA"/>
<path id="Vector_3" fill-rule="evenodd" clip-rule="evenodd" d="M31.8218 11.9132C25.1389 9.95304 13.1682 11.1056 11.2881 11.9507L10.6431 11.1156C14.9333 7.21288 24.5014 4.41272 32.3618 11.1606L31.8218 11.9132Z" fill="#808080"/>
</g>
</g>
</g>
</svg>
